<svg width="580" height="400" xmlns="http://www.w3.org/2000/svg">
 <!-- Created with Method Draw - http://github.com/duopixel/Method-Draw/ -->
 <g>
  <title>background</title>
  <rect fill="#fff" id="canvas_background" height="402" width="582" y="-1" x="-1"/>
  <g display="none" overflow="visible" y="0" x="0" height="100%" width="100%" id="canvasGrid">
   <rect fill="url(#gridpattern)" stroke-width="0" y="0" x="0" height="100%" width="100%"/>
  </g>
 </g>
 <g>
  <title>Layer 1</title>
  <path stroke="#000" d="m396.5036,158.1259" id="svg_4" fill-opacity="null" stroke-opacity="null" stroke-width="0" fill="none"/>
  <path stroke="#000" id="svg_6" d="m295.347174,152.062488c1.454672,-1.955449 4.765664,-2.302677 7.273993,-2.567218c2.797131,0.218559 4.952935,2.11444 6.592843,3.947812c1.907677,1.498527 4.236808,2.770148 5.191581,4.964139c2.413975,1.03998 5.263837,1.596247 6.74146,3.821344c2.233367,2.510116 3.520413,5.548348 4.6848,8.491571c0.184892,2.194101 1.299978,4.195708 1.679817,6.370018c0.65139,2.155609 1.170658,4.286647 1.872537,6.423226c0.780061,2.221297 1.888268,4.335124 2.664815,6.559534c1.418304,1.952089 2.709589,4.011708 3.590152,6.185694c-2.106985,-0.15527 0.194609,2.770436 0.58976,3.923813c0.576142,2.373936 -2.580943,1.014816 -3.133024,-0.081474c-1.949879,1.603772 -5.941843,1.963871 -7.708831,-0.141066c-1.861344,-2.132781 -2.889389,-4.838948 -5.458814,-6.382856c-1.010268,-0.731174 -1.990484,-3.923923 -2.352036,-1.104224c1.282878,2.805401 -3.765826,1.206458 -5.559109,1.710262c-3.214109,-0.561975 1.220137,-2.159227 2.585737,-1.969993c1.283105,-1.110124 3.418465,-2.969368 0.353405,-3.55212c-2.099115,-0.725618 -4.790165,-2.565716 -5.970334,0.173292c-1.481919,0.681575 -4.137853,3.91502 -1.196159,4.153313c1.188694,2.11553 -3.430516,0.585364 -4.72034,1.085742c-1.216103,0.333372 -4.247047,-0.251146 -1.424125,-0.785965c2.428761,-0.346713 3.586758,-2.940674 5.111595,-4.511924c-0.050565,-2.015907 -1.906425,-3.615837 -3.297498,-5.137913c-1.479839,-2.145378 -3.544645,-3.982956 -4.572879,-6.331012c-0.67448,-2.438161 -1.958621,-4.692419 -2.609878,-7.136194c-0.735253,-2.449025 -1.578409,-5.210493 0.003803,-7.557333c0.721144,-2.059022 1.021425,-3.980049 -0.491918,-5.67484c-2.09106,-1.477753 -5.063015,-0.885073 -7.474117,-1.865046c-0.290596,-1.582742 3.569738,-2.186641 5.247522,-2.54018c0.636983,-0.019234 1.124533,-0.482493 1.785242,-0.470404l0,0.000005z" fill-opacity="null" stroke-opacity="null" stroke-width="0" fill="#000000"/>
  <text style="cursor: move;" stroke="#000" transform="matrix(1.2086963603764038,0,0,1.2071611587750752,-47.5104804977802,-34.298179934265335) " font-weight="bold" xml:space="preserve" text-anchor="start" font-family="'Palatino Linotype', 'Book Antiqua', Palatino, serif" font-size="24" id="svg_7" y="189.125898" x="170.503596" fill-opacity="null" stroke-opacity="null" stroke-width="0" fill="#000000">Pico Tech.</text>
 </g>
</svg>